<?xml version="1.0" encoding="UTF-8" standalone="no"?>
<svg
   id="Layer_1"
   height="512"
   viewBox="0 0 24 24"
   width="512"
   data-name="Layer 1"
   version="1.1"
   sodipodi:docname="diplome.svg"
   inkscape:version="1.3.2 (091e20ef0f, 2023-11-25)"
   xmlns:inkscape="http://www.inkscape.org/namespaces/inkscape"
   xmlns:sodipodi="http://sodipodi.sourceforge.net/DTD/sodipodi-0.dtd"
   xmlns="http://www.w3.org/2000/svg"
   xmlns:svg="http://www.w3.org/2000/svg">
  <defs
     id="defs1" />
  <sodipodi:namedview
     id="namedview1"
     pagecolor="#ffffff"
     bordercolor="#000000"
     borderopacity="0.25"
     inkscape:showpageshadow="2"
     inkscape:pageopacity="0.0"
     inkscape:pagecheckerboard="0"
     inkscape:deskcolor="#d1d1d1"
     showgrid="false"
     inkscape:zoom="1.5234375"
     inkscape:cx="256"
     inkscape:cy="255.67179"
     inkscape:window-width="1920"
     inkscape:window-height="1050"
     inkscape:window-x="0"
     inkscape:window-y="0"
     inkscape:window-maximized="1"
     inkscape:current-layer="Layer_1" />
  <path
     d="m24 15.5a4.5 4.5 0 0 0 -2-3.738v-8.262a3.5 3.5 0 0 0 -3.5-3.5h-13a3.5 3.5 0 0 0 -3.5 3.5v18.5h12v-3h-9v-15.5a.5.5 0 0 1 .5-.5h13a.5.5 0 0 1 .5.5v7.551a4.481 4.481 0 0 0 -2 8.187v4.762l2.5-2.5 2.5 2.5v-4.762a4.5 4.5 0 0 0 2-3.738zm-4.5-1.5a1.5 1.5 0 1 1 -1.5 1.5 1.5 1.5 0 0 1 1.5-1.5zm-2.5-6h-10v-3h10zm-10 2h6v3h-6z"
     id="path1"
     inkscape:export-filename="../../Senku/image/img_button_score64x64.png"
     inkscape:export-xdpi="12"
     inkscape:export-ydpi="12" />
</svg>
