<?xml version="1.0" encoding="UTF-8" standalone="no"?>
<svg
   id="Isolation_Mode"
   data-name="Isolation Mode"
   viewBox="0 0 24 24"
   width="512"
   height="512"
   version="1.1"
   sodipodi:docname="grille.svg"
   inkscape:export-filename="../../Senku/image/img_button_new_game64x64.png"
   inkscape:export-xdpi="12"
   inkscape:export-ydpi="12"
   inkscape:version="1.3.2 (091e20ef0f, 2023-11-25)"
   xmlns:inkscape="http://www.inkscape.org/namespaces/inkscape"
   xmlns:sodipodi="http://sodipodi.sourceforge.net/DTD/sodipodi-0.dtd"
   xmlns="http://www.w3.org/2000/svg"
   xmlns:svg="http://www.w3.org/2000/svg">
  <defs
     id="defs6" />
  <sodipodi:namedview
     id="namedview6"
     pagecolor="#ffffff"
     bordercolor="#000000"
     borderopacity="0.25"
     inkscape:showpageshadow="2"
     inkscape:pageopacity="0.0"
     inkscape:pagecheckerboard="0"
     inkscape:deskcolor="#d1d1d1"
     inkscape:zoom="1.5234375"
     inkscape:cx="256"
     inkscape:cy="255.67179"
     inkscape:window-width="1920"
     inkscape:window-height="1050"
     inkscape:window-x="0"
     inkscape:window-y="0"
     inkscape:window-maximized="1"
     inkscape:current-layer="Isolation_Mode" />
  <path
     d="M6.5,24H3a3,3,0,0,1-3-3V17.5H6.5Z"
     id="path1" />
  <path
     d="M21,24H17.5V17.5H24V21A3,3,0,0,1,21,24Z"
     id="path2" />
  <rect
     y="8.75"
     width="6.5"
     height="6.5"
     id="rect2" />
  <rect
     x="17.5"
     y="8.75"
     width="6.5"
     height="6.5"
     id="rect3" />
  <path
     d="M6.5,6.5H0V3A3,3,0,0,1,3,0H6.5Z"
     id="path3" />
  <rect
     x="8.75"
     y="17.5"
     width="6.5"
     height="6.5"
     id="rect4" />
  <rect
     x="8.75"
     y="8.75"
     width="6.5"
     height="6.5"
     id="rect5" />
  <rect
     x="8.75"
     width="6.5"
     height="6.5"
     id="rect6" />
  <path
     d="M24,6.5H17.5V0H21a3,3,0,0,1,3,3Z"
     id="path6" />
</svg>
