<?xml version="1.0" encoding="UTF-8" standalone="no"?>
<svg
   data-name="Layer 1"
   viewBox="0 0 444 555"
   x="0px"
   y="0px"
   version="1.1"
   id="svg3"
   sodipodi:docname="noun-add-3861664.svg"
   width="444"
   height="555"
   xmlns:inkscape="http://www.inkscape.org/namespaces/inkscape"
   xmlns:sodipodi="http://sodipodi.sourceforge.net/DTD/sodipodi-0.dtd"
   xmlns="http://www.w3.org/2000/svg"
   xmlns:svg="http://www.w3.org/2000/svg">
  <defs
     id="defs3" />
  <sodipodi:namedview
     id="namedview3"
     pagecolor="#ffffff"
     bordercolor="#000000"
     borderopacity="0.25"
     inkscape:showpageshadow="2"
     inkscape:pageopacity="0.0"
     inkscape:pagecheckerboard="0"
     inkscape:deskcolor="#d1d1d1" />
  <title
     id="title1">Icon</title>
  <path
     d="m -54,-79.75 a 9.25,9.25 0 1 0 9.25,9.25 9.26,9.26 0 0 0 -9.25,-9.25 z m 0,16.5 a 7.25,7.25 0 1 1 7.25,-7.25 7.26,7.26 0 0 1 -7.25,7.25 z"
     id="path1" />
  <path
     d="M -49.62,-71.5 H -53 v -3.38 a 1,1 0 0 0 -2,0 v 3.38 h -3.38 a 1,1 0 0 0 0,2 H -55 v 3.38 a 1,1 0 0 0 2,0 v -3.38 h 3.38 a 1,1 0 0 0 0,-2 z"
     id="path2" />
  <text
     x="-66"
     y="-43.5"
     fill="#000000"
     font-size="5px"
     font-weight="bold"
     font-family="'Helvetica Neue', Helvetica, Arial-Unicode, Arial, Sans-serif"
     id="text2">Created by Mas Dhimas</text>
  <text
     x="-66"
     y="-38.5"
     fill="#000000"
     font-size="5px"
     font-weight="bold"
     font-family="'Helvetica Neue', Helvetica, Arial-Unicode, Arial, Sans-serif"
     id="text3">from the Noun Project</text>
</svg>
