<?xml version="1.0" encoding="UTF-8" standalone="no"?>
<svg
   data-name="Layer 1"
   viewBox="0 0 100 125"
   x="0px"
   y="0px"
   version="1.1"
   id="svg3"
   sodipodi:docname="noun-clockwise-3553040.svg"
   inkscape:version="1.3.2 (091e20ef0f, 2023-11-25)"
   xmlns:inkscape="http://www.inkscape.org/namespaces/inkscape"
   xmlns:sodipodi="http://sodipodi.sourceforge.net/DTD/sodipodi-0.dtd"
   xmlns="http://www.w3.org/2000/svg"
   xmlns:svg="http://www.w3.org/2000/svg">
  <defs
     id="defs3" />
  <sodipodi:namedview
     id="namedview3"
     pagecolor="#ffffff"
     bordercolor="#000000"
     borderopacity="0.25"
     inkscape:showpageshadow="2"
     inkscape:pageopacity="0.0"
     inkscape:pagecheckerboard="0"
     inkscape:deskcolor="#d1d1d1"
     showgrid="false"
     inkscape:zoom="6.728"
     inkscape:cx="49.940547"
     inkscape:cy="62.5"
     inkscape:window-width="1920"
     inkscape:window-height="1050"
     inkscape:window-x="0"
     inkscape:window-y="0"
     inkscape:window-maximized="1"
     inkscape:current-layer="svg3" />
  <title
     id="title1">Artboard 94</title>
  <g
     id="g2"
     inkscape:export-filename="img_button_right2.png"
     inkscape:export-xdpi="96"
     inkscape:export-ydpi="96"
     transform="matrix(-1,0,0,1,99.35,0)">
    <path
       d="M 49,54 A 18,18 0 1 0 31,36 18,18 0 0 0 49,54 Z M 49,26 A 10,10 0 1 1 39,36 10,10 0 0 1 49,26 Z"
       id="path1" />
    <path
       d="M 72.94,59.72 A 24,24 0 0 1 33.12,66 H 43 V 58 H 23 a 4,4 0 0 0 -4,4 v 20 h 8 V 71.15 a 32,32 0 0 0 53.35,-8.42 z"
       id="path2" />
  </g>
  <text
     x="0"
     y="115"
     fill="#000000"
     font-size="5px"
     font-weight="bold"
     font-family="'Helvetica Neue', Helvetica, Arial-Unicode, Arial, Sans-serif"
     id="text2">Created by Gregor Cresnar</text>
  <text
     x="0"
     y="120"
     fill="#000000"
     font-size="5px"
     font-weight="bold"
     font-family="'Helvetica Neue', Helvetica, Arial-Unicode, Arial, Sans-serif"
     id="text3">from the Noun Project</text>
</svg>
