<?xml version="1.0" encoding="UTF-8" standalone="no"?>
<svg
   version="1.1"
   x="0px"
   y="0px"
   viewBox="0 0 100 125"
   enable-background="new 0 0 100 100"
   xml:space="preserve"
   id="svg3"
   sodipodi:docname="noun-undo-3617628.svg"
   inkscape:version="1.3.2 (091e20ef0f, 2023-11-25)"
   xmlns:inkscape="http://www.inkscape.org/namespaces/inkscape"
   xmlns:sodipodi="http://sodipodi.sourceforge.net/DTD/sodipodi-0.dtd"
   xmlns="http://www.w3.org/2000/svg"
   xmlns:svg="http://www.w3.org/2000/svg"><defs
     id="defs3" /><sodipodi:namedview
     id="namedview3"
     pagecolor="#ffffff"
     bordercolor="#000000"
     borderopacity="0.25"
     inkscape:showpageshadow="2"
     inkscape:pageopacity="0.0"
     inkscape:pagecheckerboard="0"
     inkscape:deskcolor="#d1d1d1"
     showgrid="false"
     inkscape:zoom="6.728"
     inkscape:cx="49.940547"
     inkscape:cy="62.5"
     inkscape:window-width="1920"
     inkscape:window-height="1050"
     inkscape:window-x="0"
     inkscape:window-y="0"
     inkscape:window-maximized="1"
     inkscape:current-layer="svg3" /><g
     id="g2"
     inkscape:export-filename="img_button_undo.png"
     inkscape:export-xdpi="76.800003"
     inkscape:export-ydpi="76.800003"><path
       d="M50,10c-22.056,0-40,17.944-40,40s17.944,40,40,40s40-17.944,40-40S72.056,10,50,10z M50,82.301   c-17.811,0-32.301-14.49-32.301-32.301S32.189,17.699,50,17.699S82.301,32.189,82.301,50S67.811,82.301,50,82.301z"
       id="path1" /><path
       d="M54.01,27.901v-5.839l-9.654,9.654l9.654,9.654v-5.681C60.282,37.456,64.866,43.268,64.866,50   c0,4.148-1.752,8.135-4.804,10.944c-2.749,2.529-6.323,3.922-10.062,3.922c-8.197,0-14.866-6.669-14.866-14.866   c0-4.108,1.639-7.929,4.616-10.766c1.541-1.466,1.599-3.902,0.133-5.441c-1.469-1.544-3.905-1.596-5.441-0.133   c-4.519,4.303-7.007,10.105-7.007,16.34c0,12.443,10.122,22.565,22.565,22.565c5.676,0,11.102-2.115,15.275-5.955   c4.634-4.263,7.29-10.318,7.29-16.61C72.565,39.068,64.562,29.825,54.01,27.901z"
       id="path2" /></g><text
     x="0"
     y="115"
     fill="#000000"
     font-size="5px"
     font-weight="bold"
     font-family="'Helvetica Neue', Helvetica, Arial-Unicode, Arial, Sans-serif"
     id="text2">Created by Kick</text><text
     x="0"
     y="120"
     fill="#000000"
     font-size="5px"
     font-weight="bold"
     font-family="'Helvetica Neue', Helvetica, Arial-Unicode, Arial, Sans-serif"
     id="text3">from the Noun Project</text></svg>
