<?xml version="1.0" encoding="UTF-8" standalone="no"?>
<svg
   version="1.1"
   x="0px"
   y="0px"
   viewBox="0 0 90 112.5"
   enable-background="new 0 0 90 90"
   xml:space="preserve"
   id="svg3"
   sodipodi:docname="noun-left-turn-118738.svg"
   inkscape:version="1.3.2 (091e20ef0f, 2023-11-25)"
   xmlns:inkscape="http://www.inkscape.org/namespaces/inkscape"
   xmlns:sodipodi="http://sodipodi.sourceforge.net/DTD/sodipodi-0.dtd"
   xmlns="http://www.w3.org/2000/svg"
   xmlns:svg="http://www.w3.org/2000/svg"><defs
     id="defs3" /><sodipodi:namedview
     id="namedview3"
     pagecolor="#ffffff"
     bordercolor="#000000"
     borderopacity="0.25"
     inkscape:showpageshadow="2"
     inkscape:pageopacity="0.0"
     inkscape:pagecheckerboard="0"
     inkscape:deskcolor="#d1d1d1"
     showgrid="false"
     inkscape:zoom="7.4755556"
     inkscape:cx="45.013377"
     inkscape:cy="56.25"
     inkscape:window-width="1920"
     inkscape:window-height="1050"
     inkscape:window-x="0"
     inkscape:window-y="0"
     inkscape:window-maximized="1"
     inkscape:current-layer="svg3" /><g
     id="g2"
     inkscape:export-filename="img_button_left4.png"
     inkscape:export-xdpi="74.472725"
     inkscape:export-ydpi="74.472725"><path
       fill="#000000"
       d="M45,3.75c-22.781,0-41.25,18.469-41.25,41.252C3.75,67.783,22.219,86.25,45,86.25   c22.779,0,41.25-18.471,41.25-41.248C86.25,22.222,67.779,3.75,45,3.75z M45,75.383c-16.777,0-30.383-13.601-30.383-30.381   S28.22,14.617,45,14.617s30.383,13.604,30.383,30.385S61.777,75.383,45,75.383z"
       id="path1" /><path
       fill="#000000"
       d="M54.227,30.96H38.254v-6.389l-18.366,10.98l18.366,10.58v-5.989h14.773c4.193,0,3.594,3.793,3.594,3.793   v19.365h8.984V42.339C65.605,31.159,54.227,30.96,54.227,30.96z"
       id="path2" /></g><text
     x="0"
     y="105"
     fill="#000000"
     font-size="5px"
     font-weight="bold"
     font-family="'Helvetica Neue', Helvetica, Arial-Unicode, Arial, Sans-serif"
     id="text2">Created by Jonathan Li</text><text
     x="0"
     y="110"
     fill="#000000"
     font-size="5px"
     font-weight="bold"
     font-family="'Helvetica Neue', Helvetica, Arial-Unicode, Arial, Sans-serif"
     id="text3">from the Noun Project</text></svg>
