<svg xmlns:dc="http://purl.org/dc/elements/1.1/" xmlns:cc="http://creativecommons.org/ns#" xmlns:rdf="http://www.w3.org/1999/02/22-rdf-syntax-ns#" xmlns:svg="http://www.w3.org/2000/svg" xmlns="http://www.w3.org/2000/svg" xmlns:sodipodi="http://sodipodi.sourceforge.net/DTD/sodipodi-0.dtd" xmlns:inkscape="http://www.inkscape.org/namespaces/inkscape" viewBox="0 0 12.7 15.875" version="1.1" x="0px" y="0px"><g transform="translate(0,-284.29999)"><path d="m 6.3507753,285.35806 c -2.9193799,0 -5.2926898,2.37177 -5.2926898,5.29115 0,2.91937 2.3733099,5.2927 5.2926898,5.2927 2.9193599,0 5.2911387,-2.37333 5.2911387,-5.2927 0,-2.91938 -2.3717788,-5.29115 -5.2911387,-5.29115 z m 0,0.52916 c 2.6333998,0 4.7619797,2.1286 4.7619797,4.76199 0,2.63338 -2.1285799,4.76353 -4.7619797,4.76353 -2.63339,0 -4.7635298,-2.13015 -4.7635298,-4.76353 0,-2.63339 2.1301398,-4.76199 4.7635298,-4.76199 z m -1.84795,2.3797 a 0.26460979,0.26460979 0 0 0 -0.26924,0.26769 v 1.05833 a 0.26460979,0.26460979 0 0 0 0.2656102,0.26613 h 1.0562698 a 0.26484199,0.26484199 0 1 0 0,-0.52968 H 5.0624754 c 0.34046,-0.33296 0.79853,-0.52917 1.2882999,-0.52917 1.02606,0 1.85156,0.82551 1.85156,1.85157 0,1.02606 -0.8255,1.85157 -1.85156,1.85157 -1.0260499,0 -1.8536399,-0.82551 -1.8536399,-1.85157 a 0.26452646,0.26452646 0 1 0 -0.5271,0 c 0,1.31195 1.0687799,2.38073 2.3807399,2.38073 1.3119399,0 2.3807298,-1.06878 2.3807298,-2.38073 0,-1.31196 -1.0687899,-2.38073 -2.3807298,-2.38073 -0.59568,0 -1.15794,0.22563 -1.5880199,0.61339 v -0.34984 a 0.26460979,0.26460979 0 0 0 -0.2599301,-0.26769 z" style="color:#000000;font-style:normal;font-variant:normal;font-weight:normal;font-stretch:normal;font-size:medium;line-height:normal;font-family:sans-serif;font-variant-ligatures:normal;font-variant-position:normal;font-variant-caps:normal;font-variant-numeric:normal;font-variant-alternates:normal;font-feature-settings:normal;text-indent:0;text-align:start;text-decoration:none;text-decoration-line:none;text-decoration-style:solid;text-decoration-color:#000000;letter-spacing:normal;word-spacing:normal;text-transform:none;writing-mode:lr-tb;direction:ltr;text-orientation:mixed;dominant-baseline:auto;baseline-shift:baseline;text-anchor:start;white-space:normal;shape-padding:0;clip-rule:nonzero;display:inline;overflow:visible;visibility:visible;opacity:1;isolation:auto;mix-blend-mode:normal;color-interpolation:sRGB;color-interpolation-filters:linearRGB;solid-color:#000000;solid-opacity:1;vector-effect:none;fill:#000000;fill-opacity:1;fill-rule:nonzero;stroke:none;stroke-width:0.52916664;stroke-linecap:butt;stroke-linejoin:round;stroke-miterlimit:4;stroke-dasharray:none;stroke-dashoffset:0;stroke-opacity:1;color-rendering:auto;image-rendering:auto;shape-rendering:auto;text-rendering:auto;enable-background:accumulate"/></g><text x="0" y="27.7" fill="#000000" font-size="5px" font-weight="bold" font-family="'Helvetica Neue', Helvetica, Arial-Unicode, Arial, Sans-serif">Created by Nawicon</text><text x="0" y="32.7" fill="#000000" font-size="5px" font-weight="bold" font-family="'Helvetica Neue', Helvetica, Arial-Unicode, Arial, Sans-serif">from the Noun Project</text></svg>