<svg xmlns="http://www.w3.org/2000/svg" viewBox="0 0 27 41.25" fill="none" x="0px" y="0px"><path d="M10.1934 8.14015C10.7244 7.99215 11.0357 7.44168 10.8867 6.90968C10.7377 6.37768 10.1813 6.06932 9.6543 6.21632C4.0023 7.79732 0.0546875 13.1376 0.0546875 19.2046C0.0546875 26.6226 5.88669 32.6577 13.0547 32.6577C20.2227 32.6577 26.0547 26.6226 26.0547 19.2046C26.0547 13.1376 22.1071 7.79532 16.4531 6.21632C15.9241 6.07032 15.3687 6.37668 15.2207 6.90968C15.0727 7.44168 15.3831 7.9931 15.9141 8.1421C20.7071 9.4821 24.0547 14.0306 24.0547 19.2046C24.0547 25.5196 19.1197 30.6577 13.0547 30.6577C6.98969 30.6577 2.05469 25.5196 2.05469 19.2046C2.05569 14.0296 5.40036 9.48115 10.1934 8.14015Z" fill="black"/><path d="M14.0547 16.1602V1.65625C14.0547 1.10425 13.6077 0.65625 13.0547 0.65625C12.5017 0.65625 12.0547 1.10425 12.0547 1.65625V16.1602C12.0547 16.7122 12.5017 17.1602 13.0547 17.1602C13.6077 17.1602 14.0547 16.7132 14.0547 16.1602Z" fill="black"/><text x="0" y="48" fill="#000000" font-size="5px" font-weight="bold" font-family="'Helvetica Neue', Helvetica, Arial-Unicode, Arial, Sans-serif">Created by Anitha Jagathish</text><text x="0" y="53" fill="#000000" font-size="5px" font-weight="bold" font-family="'Helvetica Neue', Helvetica, Arial-Unicode, Arial, Sans-serif">from the Noun Project</text></svg>