<?xml version="1.0" encoding="UTF-8" standalone="no"?>
<svg
   viewBox="0 0 32 40"
   x="0px"
   y="0px"
   version="1.1"
   id="svg2"
   sodipodi:docname="noun-next-5014983.svg"
   inkscape:version="1.3.2 (091e20ef0f, 2023-11-25)"
   xmlns:inkscape="http://www.inkscape.org/namespaces/inkscape"
   xmlns:sodipodi="http://sodipodi.sourceforge.net/DTD/sodipodi-0.dtd"
   xmlns="http://www.w3.org/2000/svg"
   xmlns:svg="http://www.w3.org/2000/svg">
  <defs
     id="defs2" />
  <sodipodi:namedview
     id="namedview2"
     pagecolor="#ffffff"
     bordercolor="#000000"
     borderopacity="0.25"
     inkscape:showpageshadow="2"
     inkscape:pageopacity="0.0"
     inkscape:pagecheckerboard="0"
     inkscape:deskcolor="#d1d1d1"
     showgrid="false"
     inkscape:zoom="21.025"
     inkscape:cx="15.980975"
     inkscape:cy="20"
     inkscape:window-width="1920"
     inkscape:window-height="1050"
     inkscape:window-x="0"
     inkscape:window-y="0"
     inkscape:window-maximized="1"
     inkscape:current-layer="svg2" />
  <title
     id="title1">16 Forward</title>
  <g
     id="g1"
     inkscape:export-filename="img_button_right.png"
     inkscape:export-xdpi="204.8"
     inkscape:export-ydpi="204.8">
    <path
       d="M23.25,12.33A2.33,2.33,0,0,1,24,14a2.3,2.3,0,0,1-.74,1.69l-2.16,2a1,1,0,0,1-.67.26,1,1,0,0,1-.74-.32,1,1,0,0,1,.07-1.42L21.05,15H11.57A1.58,1.58,0,0,0,10,16.6v4.48a1,1,0,0,1-2,0V16.6A3.58,3.58,0,0,1,11.57,13H21l-1.26-1.13A1,1,0,0,1,21.1,10.4ZM31,16A15,15,0,1,1,16,1,15,15,0,0,1,31,16Zm-2,0A13,13,0,1,0,16,29,13,13,0,0,0,29,16Z"
       id="path1" />
  </g>
  <text
     x="0"
     y="47"
     fill="#000000"
     font-size="5px"
     font-weight="bold"
     font-family="'Helvetica Neue', Helvetica, Arial-Unicode, Arial, Sans-serif"
     id="text1">Created by Ricons</text>
  <text
     x="0"
     y="52"
     fill="#000000"
     font-size="5px"
     font-weight="bold"
     font-family="'Helvetica Neue', Helvetica, Arial-Unicode, Arial, Sans-serif"
     id="text2">from the Noun Project</text>
</svg>
