<?xml version="1.0" encoding="UTF-8" standalone="no"?>
<svg
   version="1.1"
   x="0px"
   y="0px"
   viewBox="0 0 64 80"
   enable-background="new 0 0 64 64"
   xml:space="preserve"
   id="svg4"
   sodipodi:docname="noun-check-mark-496575.svg"
   inkscape:version="1.3.2 (091e20ef0f, 2023-11-25)"
   xmlns:inkscape="http://www.inkscape.org/namespaces/inkscape"
   xmlns:sodipodi="http://sodipodi.sourceforge.net/DTD/sodipodi-0.dtd"
   xmlns="http://www.w3.org/2000/svg"
   xmlns:svg="http://www.w3.org/2000/svg"
   xmlns:ns="http://ns.adobe.com/SaveForWeb/1.0/"><defs
     id="defs4" /><sodipodi:namedview
     id="namedview4"
     pagecolor="#ffffff"
     bordercolor="#000000"
     borderopacity="0.25"
     inkscape:showpageshadow="2"
     inkscape:pageopacity="0.0"
     inkscape:pagecheckerboard="0"
     inkscape:deskcolor="#d1d1d1"
     inkscape:zoom="10.5125"
     inkscape:cx="31.96195"
     inkscape:cy="40"
     inkscape:window-width="1920"
     inkscape:window-height="1050"
     inkscape:window-x="0"
     inkscape:window-y="0"
     inkscape:window-maximized="1"
     inkscape:current-layer="svg4" /><metadata
     id="metadata1"><ns:sfw><ns:slices /><ns:sliceSourceBounds
         height="16384"
         width="16389"
         x="-8165"
         y="-8160"
         bottomLeftOrigin="true" /><ns:optimizationSettings><ns:targetSettings
           targetSettingsID="0"
           fileFormat="PNG24Format"><ns:PNG24Format
             transparency="true"
             filtered="false"
             interlaced="false"
             noMatteColor="false"
             matteColor="#FFFFFF" /></ns:targetSettings></ns:optimizationSettings></ns:sfw></metadata><g
     id="g3"
     inkscape:export-filename="img_button_score.png"
     inkscape:export-xdpi="118.15385"
     inkscape:export-ydpi="118.15385"><g
       id="g2"><path
         d="M32,6C17.664,6,6,17.664,6,32c0,14.337,11.664,26,26,26c14.337,0,26-11.663,26-26C58,17.664,46.337,6,32,6z M32,54    c-12.131,0-22-9.869-22-22s9.869-22,22-22s22,9.869,22,22S44.131,54,32,54z"
         id="path1" /><path
         d="M38.464,24.72l-8.85,10.619l-4.505-3.003c-0.918-0.613-2.161-0.364-2.773,0.555c-0.613,0.919-0.364,2.161,0.555,2.773l6,4    C29.23,39.891,29.616,40,29.999,40c0.576,0,1.145-0.248,1.538-0.72l10-12c0.707-0.849,0.593-2.109-0.256-2.817    S39.171,23.871,38.464,24.72z"
         id="path2" /></g></g><text
     x="0"
     y="79"
     fill="#000000"
     font-size="5px"
     font-weight="bold"
     font-family="'Helvetica Neue', Helvetica, Arial-Unicode, Arial, Sans-serif"
     id="text3">Created by Ralf Schmitzer</text><text
     x="0"
     y="84"
     fill="#000000"
     font-size="5px"
     font-weight="bold"
     font-family="'Helvetica Neue', Helvetica, Arial-Unicode, Arial, Sans-serif"
     id="text4">from the Noun Project</text></svg>
